{
	"patcher" : 	{
		"fileversion" : 1,
		"rect" : [ 243.0, 203.0, 933.0, 649.0 ],
		"bglocked" : 0,
		"defrect" : [ 243.0, 203.0, 933.0, 649.0 ],
		"openrect" : [ 0.0, 0.0, 0.0, 0.0 ],
		"openinpresentation" : 1,
		"default_fontsize" : 12.0,
		"default_fontface" : 0,
		"default_fontname" : "Arial",
		"gridonopen" : 0,
		"gridsize" : [ 15.0, 15.0 ],
		"gridsnaponopen" : 0,
		"toolbarvisible" : 1,
		"boxanimatetime" : 200,
		"imprint" : 0,
		"enablehscroll" : 1,
		"enablevscroll" : 1,
		"devicewidth" : 0.0,
		"boxes" : [ 			{
				"box" : 				{
					"maxclass" : "live.toggle",
					"varname" : "sc2_vertmode_on",
					"id" : "obj-31",
					"presentation_rect" : [ 323.0, 40.0, 24.0, 24.0 ],
					"numinlets" : 1,
					"numoutlets" : 1,
					"patching_rect" : [ 518.0, 362.0, 24.0, 24.0 ],
					"presentation" : 1,
					"parameter_enable" : 1,
					"outlettype" : [ "" ],
					"saved_attribute_attributes" : 					{
						"valueof" : 						{
							"parameter_shortname" : "sc2_vertmode_on",
							"parameter_invisible" : 1,
							"parameter_modmax" : 127.0,
							"parameter_annotation_name" : "",
							"parameter_longname" : "sc2 vertmode on",
							"parameter_modmin" : 0.0,
							"parameter_linknames" : 0,
							"parameter_modmode" : 0,
							"parameter_info" : "",
							"parameter_order" : 0,
							"parameter_units" : "",
							"parameter_speedlim" : 0,
							"parameter_steps" : 0,
							"parameter_enum" : [ "off", "on" ],
							"parameter_exponent" : 1.0,
							"parameter_unitstyle" : 10,
							"parameter_mmax" : 1.0,
							"parameter_mmin" : 0.0,
							"parameter_type" : 2,
							"parameter_initial_enable" : 0
						}

					}

				}

			}
, 			{
				"box" : 				{
					"maxclass" : "live.toggle",
					"varname" : "macros_scene_mode_on",
					"id" : "obj-30",
					"presentation_rect" : [ 402.0, 40.0, 24.0, 24.0 ],
					"numinlets" : 1,
					"numoutlets" : 1,
					"patching_rect" : [ 555.0, 184.0, 24.0, 24.0 ],
					"presentation" : 1,
					"parameter_enable" : 1,
					"outlettype" : [ "" ],
					"saved_attribute_attributes" : 					{
						"valueof" : 						{
							"parameter_shortname" : "macros_scene_mode_on",
							"parameter_invisible" : 1,
							"parameter_modmax" : 127.0,
							"parameter_annotation_name" : "",
							"parameter_longname" : "macros scene mode on",
							"parameter_modmin" : 0.0,
							"parameter_linknames" : 0,
							"parameter_modmode" : 0,
							"parameter_info" : "",
							"parameter_order" : 0,
							"parameter_units" : "",
							"parameter_speedlim" : 0,
							"parameter_steps" : 0,
							"parameter_enum" : [ "off", "on" ],
							"parameter_exponent" : 1.0,
							"parameter_unitstyle" : 10,
							"parameter_mmax" : 1.0,
							"parameter_mmin" : 0.0,
							"parameter_type" : 2,
							"parameter_initial_enable" : 0
						}

					}

				}

			}
, 			{
				"box" : 				{
					"maxclass" : "live.toggle",
					"varname" : "sc1_vertigo_on",
					"id" : "obj-29",
					"presentation_rect" : [ 218.0, 40.0, 24.0, 24.0 ],
					"numinlets" : 1,
					"numoutlets" : 1,
					"patching_rect" : [ 377.0, 154.0, 24.0, 24.0 ],
					"presentation" : 1,
					"parameter_enable" : 1,
					"outlettype" : [ "" ],
					"saved_attribute_attributes" : 					{
						"valueof" : 						{
							"parameter_shortname" : "sc1_vertigo_on",
							"parameter_invisible" : 1,
							"parameter_modmax" : 127.0,
							"parameter_annotation_name" : "",
							"parameter_longname" : "sc1 vertigo on",
							"parameter_modmin" : 0.0,
							"parameter_linknames" : 0,
							"parameter_modmode" : 0,
							"parameter_info" : "",
							"parameter_order" : 0,
							"parameter_units" : "",
							"parameter_speedlim" : 0,
							"parameter_steps" : 0,
							"parameter_enum" : [ "off", "on" ],
							"parameter_exponent" : 1.0,
							"parameter_unitstyle" : 10,
							"parameter_mmax" : 1.0,
							"parameter_mmin" : 0.0,
							"parameter_type" : 2,
							"parameter_initial_enable" : 0
						}

					}

				}

			}
, 			{
				"box" : 				{
					"maxclass" : "live.toggle",
					"varname" : "sc1_crazy_on",
					"id" : "obj-26",
					"presentation_rect" : [ 169.0, 40.0, 24.0, 24.0 ],
					"numinlets" : 1,
					"numoutlets" : 1,
					"patching_rect" : [ 264.0, 146.0, 24.0, 24.0 ],
					"presentation" : 1,
					"parameter_enable" : 1,
					"outlettype" : [ "" ],
					"saved_attribute_attributes" : 					{
						"valueof" : 						{
							"parameter_shortname" : "sc1_crazy_on",
							"parameter_invisible" : 1,
							"parameter_modmax" : 127.0,
							"parameter_annotation_name" : "",
							"parameter_longname" : "sc1 crazy on",
							"parameter_modmin" : 0.0,
							"parameter_linknames" : 0,
							"parameter_modmode" : 0,
							"parameter_info" : "",
							"parameter_order" : 0,
							"parameter_units" : "",
							"parameter_speedlim" : 0,
							"parameter_steps" : 0,
							"parameter_enum" : [ "off", "on" ],
							"parameter_exponent" : 1.0,
							"parameter_unitstyle" : 10,
							"parameter_mmax" : 1.0,
							"parameter_mmin" : 0.0,
							"parameter_type" : 2,
							"parameter_initial_enable" : 0
						}

					}

				}

			}
, 			{
				"box" : 				{
					"maxclass" : "live.toggle",
					"varname" : "ctl_xy_on",
					"id" : "obj-23",
					"presentation_rect" : [ 55.0, 40.0, 24.0, 24.0 ],
					"numinlets" : 1,
					"numoutlets" : 1,
					"patching_rect" : [ 55.0, 240.0, 24.0, 24.0 ],
					"presentation" : 1,
					"parameter_enable" : 1,
					"outlettype" : [ "" ],
					"saved_attribute_attributes" : 					{
						"valueof" : 						{
							"parameter_shortname" : "ctl_xy_on",
							"parameter_invisible" : 1,
							"parameter_modmax" : 127.0,
							"parameter_annotation_name" : "",
							"parameter_longname" : "ctl xy on",
							"parameter_modmin" : 0.0,
							"parameter_linknames" : 0,
							"parameter_modmode" : 0,
							"parameter_info" : "",
							"parameter_order" : 0,
							"parameter_units" : "",
							"parameter_speedlim" : 0,
							"parameter_steps" : 0,
							"parameter_enum" : [ "off", "on" ],
							"parameter_exponent" : 1.0,
							"parameter_unitstyle" : 10,
							"parameter_mmax" : 1.0,
							"parameter_mmin" : 0.0,
							"parameter_type" : 2,
							"parameter_initial_enable" : 0
						}

					}

				}

			}
, 			{
				"box" : 				{
					"maxclass" : "live.line",
					"id" : "obj-22",
					"presentation_rect" : [ 375.0, 3.0, 5.0, 142.0 ],
					"numinlets" : 1,
					"numoutlets" : 0,
					"patching_rect" : [ 220.0, 9.0, 5.0, 100.0 ],
					"presentation" : 1
				}

			}
, 			{
				"box" : 				{
					"maxclass" : "live.line",
					"id" : "obj-21",
					"presentation_rect" : [ 280.0, 3.0, 5.0, 142.0 ],
					"numinlets" : 1,
					"numoutlets" : 0,
					"patching_rect" : [ 200.0, 9.0, 5.0, 100.0 ],
					"presentation" : 1
				}

			}
, 			{
				"box" : 				{
					"maxclass" : "live.line",
					"id" : "obj-20",
					"presentation_rect" : [ 132.0, 4.0, 5.0, 142.0 ],
					"numinlets" : 1,
					"numoutlets" : 0,
					"patching_rect" : [ 210.0, 9.0, 5.0, 100.0 ],
					"presentation" : 1
				}

			}
, 			{
				"box" : 				{
					"maxclass" : "comment",
					"text" : "scene 2",
					"fontname" : "Arial",
					"id" : "obj-19",
					"presentation_rect" : [ 303.0, 15.0, 67.0, 25.0 ],
					"numinlets" : 1,
					"fontsize" : 16.0,
					"numoutlets" : 0,
					"patching_rect" : [ 617.0, 317.0, 67.0, 25.0 ],
					"presentation" : 1
				}

			}
, 			{
				"box" : 				{
					"maxclass" : "newobj",
					"text" : "gate",
					"fontname" : "Arial",
					"id" : "obj-16",
					"numinlets" : 2,
					"fontsize" : 12.0,
					"numoutlets" : 1,
					"patching_rect" : [ 524.0, 439.0, 34.0, 20.0 ],
					"outlettype" : [ "" ]
				}

			}
, 			{
				"box" : 				{
					"maxclass" : "live.dial",
					"varname" : "sc2_vert_mode",
					"id" : "obj-15",
					"presentation_rect" : [ 308.0, 66.0, 50.0, 80.0 ],
					"numinlets" : 1,
					"numoutlets" : 2,
					"patching_rect" : [ 554.0, 320.0, 50.0, 80.0 ],
					"presentation" : 1,
					"appearance" : 2,
					"parameter_enable" : 1,
					"outlettype" : [ "", "float" ],
					"saved_attribute_attributes" : 					{
						"valueof" : 						{
							"parameter_shortname" : "vertigo mode",
							"parameter_invisible" : 0,
							"parameter_modmax" : 127.0,
							"parameter_annotation_name" : "",
							"parameter_longname" : "vertigo mode",
							"parameter_modmin" : 0.0,
							"parameter_linknames" : 0,
							"parameter_modmode" : 0,
							"parameter_info" : "",
							"parameter_order" : 0,
							"parameter_units" : "",
							"parameter_speedlim" : 0,
							"parameter_steps" : 0,
							"parameter_enum" : [ "-rect", "-sine", "-tri", "-inv", "-lin", "off", "lin", "inv", "tri", "sine", "rect" ],
							"parameter_exponent" : 1.0,
							"parameter_unitstyle" : 0,
							"parameter_mmax" : 127.0,
							"parameter_mmin" : 0.0,
							"parameter_type" : 2,
							"parameter_initial_enable" : 0
						}

					}

				}

			}
, 			{
				"box" : 				{
					"maxclass" : "comment",
					"text" : "control",
					"fontname" : "Arial",
					"id" : "obj-7",
					"presentation_rect" : [ 38.0, 15.0, 67.0, 25.0 ],
					"numinlets" : 1,
					"fontsize" : 16.0,
					"numoutlets" : 0,
					"patching_rect" : [ 100.0, 119.0, 67.0, 25.0 ],
					"presentation" : 1
				}

			}
, 			{
				"box" : 				{
					"maxclass" : "comment",
					"text" : "macros",
					"fontname" : "Arial",
					"id" : "obj-6",
					"presentation_rect" : [ 394.0, 15.0, 67.0, 25.0 ],
					"numinlets" : 1,
					"fontsize" : 16.0,
					"numoutlets" : 0,
					"patching_rect" : [ 555.0, 94.0, 67.0, 25.0 ],
					"presentation" : 1
				}

			}
, 			{
				"box" : 				{
					"maxclass" : "newobj",
					"text" : "gate",
					"fontname" : "Arial",
					"id" : "obj-50",
					"numinlets" : 2,
					"fontsize" : 12.0,
					"numoutlets" : 1,
					"patching_rect" : [ 262.0, 209.0, 34.0, 20.0 ],
					"outlettype" : [ "" ]
				}

			}
, 			{
				"box" : 				{
					"maxclass" : "newobj",
					"text" : "unpack",
					"fontname" : "Arial",
					"id" : "obj-39",
					"numinlets" : 1,
					"fontsize" : 12.0,
					"numoutlets" : 2,
					"patching_rect" : [ 76.0, 400.0, 49.0, 20.0 ],
					"outlettype" : [ "int", "int" ]
				}

			}
, 			{
				"box" : 				{
					"maxclass" : "newobj",
					"text" : "pak 0. 0.",
					"fontname" : "Arial",
					"id" : "obj-37",
					"numinlets" : 2,
					"fontsize" : 12.0,
					"numoutlets" : 1,
					"patching_rect" : [ 97.0, 326.0, 57.0, 20.0 ],
					"outlettype" : [ "" ]
				}

			}
, 			{
				"box" : 				{
					"maxclass" : "newobj",
					"text" : "gate",
					"fontname" : "Arial",
					"id" : "obj-24",
					"numinlets" : 2,
					"fontsize" : 12.0,
					"numoutlets" : 1,
					"patching_rect" : [ 76.0, 372.0, 34.0, 20.0 ],
					"outlettype" : [ "" ]
				}

			}
, 			{
				"box" : 				{
					"maxclass" : "newobj",
					"text" : "gate",
					"fontname" : "Arial",
					"id" : "obj-9",
					"numinlets" : 2,
					"fontsize" : 12.0,
					"numoutlets" : 1,
					"patching_rect" : [ 382.0, 215.0, 34.0, 20.0 ],
					"outlettype" : [ "" ]
				}

			}
, 			{
				"box" : 				{
					"maxclass" : "button",
					"id" : "obj-49",
					"presentation_rect" : [ 473.0, 65.0, 20.0, 20.0 ],
					"numinlets" : 1,
					"numoutlets" : 1,
					"patching_rect" : [ 276.0, 598.0, 20.0, 20.0 ],
					"presentation" : 1,
					"outlettype" : [ "bang" ]
				}

			}
, 			{
				"box" : 				{
					"maxclass" : "message",
					"fontname" : "Arial",
					"id" : "obj-48",
					"presentation_rect" : [ 471.0, 84.0, 37.0, 18.0 ],
					"numinlets" : 2,
					"fontsize" : 12.0,
					"numoutlets" : 1,
					"patching_rect" : [ 236.0, 600.0, 37.0, 18.0 ],
					"presentation" : 1,
					"outlettype" : [ "" ]
				}

			}
, 			{
				"box" : 				{
					"maxclass" : "newobj",
					"text" : "zl rot 1",
					"fontname" : "Arial",
					"id" : "obj-46",
					"numinlets" : 2,
					"fontsize" : 12.0,
					"numoutlets" : 2,
					"patching_rect" : [ 199.0, 548.0, 47.0, 20.0 ],
					"outlettype" : [ "", "" ]
				}

			}
, 			{
				"box" : 				{
					"maxclass" : "newobj",
					"text" : "funnel 6 1",
					"fontname" : "Arial",
					"id" : "obj-45",
					"numinlets" : 6,
					"fontsize" : 12.0,
					"numoutlets" : 1,
					"patching_rect" : [ 142.0, 509.0, 86.5, 20.0 ],
					"outlettype" : [ "list" ]
				}

			}
, 			{
				"box" : 				{
					"maxclass" : "newobj",
					"text" : "* 127.",
					"fontname" : "Arial Bold",
					"id" : "obj-32",
					"numinlets" : 2,
					"fontsize" : 10.0,
					"numoutlets" : 1,
					"patching_rect" : [ 146.0, 296.0, 37.0, 18.0 ],
					"outlettype" : [ "float" ]
				}

			}
, 			{
				"box" : 				{
					"maxclass" : "live.dial",
					"varname" : "ctlpty",
					"id" : "obj-33",
					"presentation_rect" : [ 67.0, 66.0, 50.0, 80.0 ],
					"numinlets" : 1,
					"numoutlets" : 2,
					"patching_rect" : [ 146.0, 154.0, 50.0, 80.0 ],
					"presentation" : 1,
					"appearance" : 2,
					"parameter_enable" : 1,
					"outlettype" : [ "", "float" ],
					"saved_attribute_attributes" : 					{
						"valueof" : 						{
							"parameter_shortname" : "ctl y",
							"parameter_invisible" : 0,
							"parameter_modmax" : 127.0,
							"parameter_annotation_name" : "",
							"parameter_longname" : "control.point.y",
							"parameter_modmin" : 0.0,
							"parameter_linknames" : 0,
							"parameter_modmode" : 4,
							"parameter_info" : "",
							"parameter_order" : 0,
							"parameter_units" : "",
							"parameter_speedlim" : 0,
							"parameter_steps" : 0,
							"parameter_exponent" : 1.0,
							"parameter_unitstyle" : 1,
							"parameter_mmax" : 1.0,
							"parameter_mmin" : -1.0,
							"parameter_type" : 0,
							"parameter_initial_enable" : 0
						}

					}

				}

			}
, 			{
				"box" : 				{
					"maxclass" : "newobj",
					"text" : "* 127.",
					"fontname" : "Arial Bold",
					"id" : "obj-10",
					"numinlets" : 2,
					"fontsize" : 10.0,
					"numoutlets" : 1,
					"patching_rect" : [ 99.0, 296.0, 37.0, 18.0 ],
					"outlettype" : [ "float" ]
				}

			}
, 			{
				"box" : 				{
					"maxclass" : "live.dial",
					"varname" : "ctlptx",
					"id" : "obj-38",
					"presentation_rect" : [ 13.0, 66.0, 50.0, 80.0 ],
					"numinlets" : 1,
					"numoutlets" : 2,
					"patching_rect" : [ 91.0, 152.0, 50.0, 80.0 ],
					"presentation" : 1,
					"appearance" : 2,
					"parameter_enable" : 1,
					"outlettype" : [ "", "float" ],
					"saved_attribute_attributes" : 					{
						"valueof" : 						{
							"parameter_shortname" : "ctl x",
							"parameter_invisible" : 0,
							"parameter_modmax" : 127.0,
							"parameter_annotation_name" : "",
							"parameter_longname" : "control.point.x",
							"parameter_modmin" : 0.0,
							"parameter_linknames" : 0,
							"parameter_modmode" : 4,
							"parameter_info" : "",
							"parameter_order" : 0,
							"parameter_units" : "",
							"parameter_speedlim" : 0,
							"parameter_steps" : 0,
							"parameter_exponent" : 1.0,
							"parameter_unitstyle" : 1,
							"parameter_mmax" : 1.0,
							"parameter_mmin" : -1.0,
							"parameter_type" : 0,
							"parameter_initial_enable" : 0
						}

					}

				}

			}
, 			{
				"box" : 				{
					"maxclass" : "comment",
					"text" : "scene 1",
					"fontname" : "Arial",
					"id" : "obj-25",
					"presentation_rect" : [ 179.0, 15.0, 67.0, 25.0 ],
					"numinlets" : 1,
					"fontsize" : 16.0,
					"numoutlets" : 0,
					"patching_rect" : [ 350.0, 50.0, 67.0, 25.0 ],
					"presentation" : 1
				}

			}
, 			{
				"box" : 				{
					"maxclass" : "live.dial",
					"varname" : "vertigo",
					"id" : "obj-5",
					"presentation_rect" : [ 208.0, 66.0, 50.0, 80.0 ],
					"numinlets" : 1,
					"numoutlets" : 2,
					"patching_rect" : [ 409.0, 86.0, 50.0, 80.0 ],
					"presentation" : 1,
					"appearance" : 2,
					"parameter_enable" : 1,
					"outlettype" : [ "", "float" ],
					"saved_attribute_attributes" : 					{
						"valueof" : 						{
							"parameter_shortname" : "vertigo",
							"parameter_invisible" : 0,
							"parameter_modmax" : 127.0,
							"parameter_annotation_name" : "",
							"parameter_longname" : "vertigo",
							"parameter_modmin" : 0.0,
							"parameter_linknames" : 0,
							"parameter_modmode" : 4,
							"parameter_info" : "",
							"parameter_order" : 0,
							"parameter_units" : "",
							"parameter_speedlim" : 0,
							"parameter_steps" : 0,
							"parameter_enum" : [ "off", "on" ],
							"parameter_exponent" : 1.0,
							"parameter_unitstyle" : 10,
							"parameter_mmax" : 1.0,
							"parameter_mmin" : 0.0,
							"parameter_type" : 1,
							"parameter_initial_enable" : 0
						}

					}

				}

			}
, 			{
				"box" : 				{
					"maxclass" : "live.dial",
					"varname" : "crazy",
					"id" : "obj-14",
					"presentation_rect" : [ 154.0, 66.0, 50.0, 80.0 ],
					"numinlets" : 1,
					"numoutlets" : 2,
					"patching_rect" : [ 294.0, 88.0, 50.0, 80.0 ],
					"presentation" : 1,
					"appearance" : 2,
					"parameter_enable" : 1,
					"outlettype" : [ "", "float" ],
					"saved_attribute_attributes" : 					{
						"valueof" : 						{
							"parameter_shortname" : "crazy",
							"parameter_invisible" : 0,
							"parameter_modmax" : 127.0,
							"parameter_annotation_name" : "",
							"parameter_longname" : "crazy",
							"parameter_modmin" : 0.0,
							"parameter_linknames" : 0,
							"parameter_modmode" : 4,
							"parameter_info" : "",
							"parameter_order" : 0,
							"parameter_units" : "",
							"parameter_speedlim" : 0,
							"parameter_steps" : 0,
							"parameter_enum" : [ "off", "on" ],
							"parameter_exponent" : 1.0,
							"parameter_unitstyle" : 10,
							"parameter_mmax" : 1.0,
							"parameter_mmin" : 0.0,
							"parameter_type" : 1,
							"parameter_initial_enable" : 0
						}

					}

				}

			}
, 			{
				"box" : 				{
					"maxclass" : "newobj",
					"text" : "gate",
					"fontname" : "Arial",
					"id" : "obj-13",
					"numinlets" : 2,
					"fontsize" : 12.0,
					"numoutlets" : 1,
					"patching_rect" : [ 575.0, 236.0, 34.0, 20.0 ],
					"outlettype" : [ "" ]
				}

			}
, 			{
				"box" : 				{
					"maxclass" : "live.dial",
					"varname" : "scenemode",
					"id" : "obj-3",
					"presentation_rect" : [ 383.0, 66.0, 50.0, 80.0 ],
					"numinlets" : 1,
					"numoutlets" : 2,
					"patching_rect" : [ 591.0, 135.0, 50.0, 80.0 ],
					"presentation" : 1,
					"appearance" : 2,
					"parameter_enable" : 1,
					"outlettype" : [ "", "float" ],
					"saved_attribute_attributes" : 					{
						"valueof" : 						{
							"parameter_shortname" : "scene mode",
							"parameter_invisible" : 0,
							"parameter_modmax" : 127.0,
							"parameter_annotation_name" : "",
							"parameter_longname" : "scene mode",
							"parameter_modmin" : 0.0,
							"parameter_linknames" : 0,
							"parameter_modmode" : 0,
							"parameter_info" : "",
							"parameter_order" : 0,
							"parameter_units" : "",
							"parameter_speedlim" : 0,
							"parameter_steps" : 0,
							"parameter_enum" : [ "off", "sc1", "sc2", "sc1+sc2", "mix" ],
							"parameter_exponent" : 1.0,
							"parameter_unitstyle" : 10,
							"parameter_mmax" : 4.0,
							"parameter_mmin" : 0.0,
							"parameter_type" : 2,
							"parameter_initial_enable" : 0
						}

					}

				}

			}
, 			{
				"box" : 				{
					"maxclass" : "newobj",
					"text" : "ctlout",
					"fontname" : "Arial Bold",
					"id" : "obj-28",
					"numinlets" : 3,
					"fontsize" : 10.0,
					"numoutlets" : 0,
					"patching_rect" : [ 134.0, 556.0, 46.0, 18.0 ]
				}

			}
, 			{
				"box" : 				{
					"maxclass" : "newobj",
					"text" : "midiout",
					"fontname" : "Arial Bold",
					"id" : "obj-2",
					"numinlets" : 1,
					"fontsize" : 10.0,
					"numoutlets" : 0,
					"patching_rect" : [ 4.0, 34.0, 47.0, 18.0 ]
				}

			}
, 			{
				"box" : 				{
					"maxclass" : "newobj",
					"text" : "midiin",
					"fontname" : "Arial Bold",
					"id" : "obj-1",
					"numinlets" : 1,
					"fontsize" : 10.0,
					"numoutlets" : 1,
					"patching_rect" : [ 4.0, 8.0, 40.0, 18.0 ],
					"outlettype" : [ "int" ]
				}

			}
 ],
		"lines" : [ 			{
				"patchline" : 				{
					"source" : [ "obj-50", 0 ],
					"destination" : [ "obj-45", 2 ],
					"hidden" : 0,
					"midpoints" : [  ]
				}

			}
, 			{
				"patchline" : 				{
					"source" : [ "obj-9", 0 ],
					"destination" : [ "obj-45", 3 ],
					"hidden" : 0,
					"midpoints" : [  ]
				}

			}
, 			{
				"patchline" : 				{
					"source" : [ "obj-39", 1 ],
					"destination" : [ "obj-45", 1 ],
					"hidden" : 0,
					"midpoints" : [  ]
				}

			}
, 			{
				"patchline" : 				{
					"source" : [ "obj-39", 0 ],
					"destination" : [ "obj-45", 0 ],
					"hidden" : 0,
					"midpoints" : [  ]
				}

			}
, 			{
				"patchline" : 				{
					"source" : [ "obj-45", 0 ],
					"destination" : [ "obj-46", 0 ],
					"hidden" : 0,
					"midpoints" : [  ]
				}

			}
, 			{
				"patchline" : 				{
					"source" : [ "obj-13", 0 ],
					"destination" : [ "obj-45", 4 ],
					"hidden" : 0,
					"midpoints" : [  ]
				}

			}
, 			{
				"patchline" : 				{
					"source" : [ "obj-45", 0 ],
					"destination" : [ "obj-28", 0 ],
					"hidden" : 0,
					"midpoints" : [  ]
				}

			}
, 			{
				"patchline" : 				{
					"source" : [ "obj-16", 0 ],
					"destination" : [ "obj-45", 5 ],
					"hidden" : 0,
					"midpoints" : [  ]
				}

			}
, 			{
				"patchline" : 				{
					"source" : [ "obj-31", 0 ],
					"destination" : [ "obj-16", 0 ],
					"hidden" : 0,
					"midpoints" : [  ]
				}

			}
, 			{
				"patchline" : 				{
					"source" : [ "obj-30", 0 ],
					"destination" : [ "obj-13", 0 ],
					"hidden" : 0,
					"midpoints" : [  ]
				}

			}
, 			{
				"patchline" : 				{
					"source" : [ "obj-29", 0 ],
					"destination" : [ "obj-9", 0 ],
					"hidden" : 0,
					"midpoints" : [  ]
				}

			}
, 			{
				"patchline" : 				{
					"source" : [ "obj-26", 0 ],
					"destination" : [ "obj-50", 0 ],
					"hidden" : 0,
					"midpoints" : [  ]
				}

			}
, 			{
				"patchline" : 				{
					"source" : [ "obj-23", 0 ],
					"destination" : [ "obj-24", 0 ],
					"hidden" : 0,
					"midpoints" : [  ]
				}

			}
, 			{
				"patchline" : 				{
					"source" : [ "obj-15", 0 ],
					"destination" : [ "obj-16", 1 ],
					"hidden" : 0,
					"midpoints" : [  ]
				}

			}
, 			{
				"patchline" : 				{
					"source" : [ "obj-14", 0 ],
					"destination" : [ "obj-50", 1 ],
					"hidden" : 0,
					"midpoints" : [  ]
				}

			}
, 			{
				"patchline" : 				{
					"source" : [ "obj-5", 0 ],
					"destination" : [ "obj-9", 1 ],
					"hidden" : 0,
					"midpoints" : [  ]
				}

			}
, 			{
				"patchline" : 				{
					"source" : [ "obj-46", 0 ],
					"destination" : [ "obj-49", 0 ],
					"hidden" : 0,
					"midpoints" : [  ]
				}

			}
, 			{
				"patchline" : 				{
					"source" : [ "obj-33", 1 ],
					"destination" : [ "obj-32", 0 ],
					"hidden" : 0,
					"midpoints" : [  ]
				}

			}
, 			{
				"patchline" : 				{
					"source" : [ "obj-38", 1 ],
					"destination" : [ "obj-10", 0 ],
					"hidden" : 0,
					"midpoints" : [  ]
				}

			}
, 			{
				"patchline" : 				{
					"source" : [ "obj-3", 0 ],
					"destination" : [ "obj-13", 1 ],
					"hidden" : 0,
					"midpoints" : [  ]
				}

			}
, 			{
				"patchline" : 				{
					"source" : [ "obj-1", 0 ],
					"destination" : [ "obj-2", 0 ],
					"hidden" : 0,
					"midpoints" : [  ]
				}

			}
, 			{
				"patchline" : 				{
					"source" : [ "obj-10", 0 ],
					"destination" : [ "obj-37", 0 ],
					"hidden" : 0,
					"midpoints" : [  ]
				}

			}
, 			{
				"patchline" : 				{
					"source" : [ "obj-32", 0 ],
					"destination" : [ "obj-37", 1 ],
					"hidden" : 0,
					"midpoints" : [  ]
				}

			}
, 			{
				"patchline" : 				{
					"source" : [ "obj-37", 0 ],
					"destination" : [ "obj-24", 1 ],
					"hidden" : 0,
					"midpoints" : [  ]
				}

			}
, 			{
				"patchline" : 				{
					"source" : [ "obj-24", 0 ],
					"destination" : [ "obj-39", 0 ],
					"hidden" : 0,
					"midpoints" : [  ]
				}

			}
, 			{
				"patchline" : 				{
					"source" : [ "obj-46", 0 ],
					"destination" : [ "obj-48", 1 ],
					"hidden" : 0,
					"midpoints" : [  ]
				}

			}
 ],
		"parameters" : 		{
			"obj-3" : [ "scene mode", "scene mode", 0 ],
			"obj-14" : [ "crazy", "crazy", 0 ],
			"obj-15" : [ "vertigo mode", "vertigo mode", 0 ],
			"obj-33" : [ "control.point.y", "ctl y", 0 ],
			"obj-5" : [ "vertigo", "vertigo", 0 ],
			"obj-31" : [ "sc2 vertmode on", "sc2_vertmode_on", 0 ],
			"obj-30" : [ "macros scene mode on", "macros_scene_mode_on", 0 ],
			"obj-29" : [ "sc1 vertigo on", "sc1_vertigo_on", 0 ],
			"obj-26" : [ "sc1 crazy on", "sc1_crazy_on", 0 ],
			"obj-23" : [ "ctl xy on", "ctl_xy_on", 0 ],
			"obj-38" : [ "control.point.x", "ctl x", 0 ]
		}

	}

}
